<svg width="86" height="85" viewBox="0 0 86 85" fill="none" xmlns="http://www.w3.org/2000/svg">
<path d="M25.5312 44.0542C25.53 44.1244 25.5011 44.1912 25.4508 44.2401C25.4005 44.289 25.3328 44.316 25.2627 44.3152H20.3183C20.4451 45.5383 21.3624 46.6569 22.66 46.6569C23.5474 46.6569 24.2037 46.3213 24.6959 45.6129C24.7188 45.5756 24.7505 45.5446 24.7882 45.5225C24.8259 45.5004 24.8685 45.4879 24.9122 45.4861C24.9447 45.4851 24.9772 45.4909 25.0074 45.5029C25.0377 45.515 25.0652 45.5331 25.0883 45.5561C25.1113 45.5791 25.1294 45.6066 25.1414 45.6369C25.1535 45.6672 25.1592 45.6996 25.1583 45.7322C25.1584 45.7772 25.1455 45.8212 25.121 45.859C24.6213 46.724 23.6295 47.1491 22.66 47.1491C20.9969 47.1491 19.8037 45.6576 19.8037 44.0691C19.8037 42.4807 20.9895 40.9891 22.66 40.9891C24.3305 40.9891 25.5237 42.4657 25.5312 44.0542V44.0542ZM25.0017 43.823C24.8973 42.6 23.9576 41.4813 22.66 41.4813C21.3624 41.4813 20.4451 42.6 20.3183 43.823H25.0017Z" fill="#29233B"/>
<path d="M31.5423 41.1084C31.607 41.1103 31.6685 41.1368 31.7142 41.1826C31.76 41.2283 31.7865 41.2899 31.7884 41.3545C31.7893 41.3871 31.7836 41.4195 31.7715 41.4498C31.7595 41.4801 31.7414 41.5076 31.7184 41.5306C31.6953 41.5537 31.6678 41.5718 31.6375 41.5838C31.6073 41.5958 31.5748 41.6016 31.5423 41.6006H30.2148V46.8135C30.2142 46.8786 30.1881 46.9409 30.1421 46.9869C30.0961 47.0329 30.0338 47.059 29.9687 47.0596C29.904 47.0577 29.8425 47.0312 29.7968 46.9854C29.751 46.9397 29.7245 46.8782 29.7226 46.8135V41.6006H28.4474C28.4148 41.6016 28.3824 41.5958 28.3521 41.5838C28.3218 41.5718 28.2943 41.5537 28.2713 41.5306C28.2482 41.5076 28.2302 41.4801 28.2181 41.4498C28.2061 41.4195 28.2003 41.3871 28.2013 41.3545C28.2019 41.2894 28.228 41.2272 28.274 41.1812C28.32 41.1351 28.3823 41.109 28.4474 41.1084H29.7226V39.2067C29.7227 39.1437 29.7453 39.0828 29.7864 39.035C29.8274 38.9871 29.8841 38.9555 29.9463 38.9457C29.9811 38.9411 30.0165 38.9441 30.0501 38.9544C30.0836 38.9647 30.1146 38.9821 30.1408 39.0055C30.167 39.0288 30.1878 39.0576 30.2019 39.0897C30.216 39.1219 30.2229 39.1567 30.2223 39.1918V41.1084H31.5423Z" fill="#3B3B3B"/>
<path d="M39.6342 43.6291V46.7837C39.6324 46.8484 39.6058 46.9099 39.5601 46.9556C39.5143 47.0014 39.4528 47.0279 39.3881 47.0298C39.3556 47.0307 39.3232 47.025 39.2929 47.0129C39.2626 47.0009 39.2351 46.9828 39.2121 46.9598C39.189 46.9367 39.1709 46.9092 39.1589 46.8789C39.1468 46.8487 39.1411 46.8163 39.142 46.7837V43.6291C39.142 42.5627 38.538 41.5037 37.3522 41.5037C35.8309 41.5037 35.1746 42.8312 35.2641 44.1959C35.2641 44.2332 35.279 44.3898 35.279 44.4122V46.7762C35.2789 46.8392 35.2563 46.9001 35.2153 46.948C35.1743 46.9958 35.1175 47.0275 35.0553 47.0372C35.0205 47.0419 34.9851 47.0389 34.9515 47.0286C34.918 47.0183 34.887 47.0009 34.8608 46.9775C34.8346 46.9541 34.8138 46.9254 34.7997 46.8932C34.7857 46.8611 34.7787 46.8262 34.7793 46.7911V36.4176C34.7799 36.3525 34.806 36.2903 34.8521 36.2442C34.8981 36.1982 34.9603 36.1721 35.0254 36.1715C35.0901 36.1734 35.1516 36.1999 35.1974 36.2457C35.2431 36.2914 35.2697 36.3529 35.2715 36.4176V42.2793C35.6966 41.5186 36.4573 41.004 37.3448 41.004C38.8064 41.004 39.6342 42.2793 39.6342 43.6291Z" fill="#3B3B3B"/>
<path d="M48.5155 44.0542C48.5144 44.1244 48.4855 44.1912 48.4351 44.2401C48.3848 44.289 48.3172 44.316 48.2471 44.3152H43.3027C43.4294 45.5383 44.3467 46.6569 45.6444 46.6569C46.5318 46.6569 47.1881 46.3213 47.6803 45.6129C47.7032 45.5756 47.7349 45.5446 47.7726 45.5225C47.8103 45.5004 47.8529 45.4879 47.8965 45.4861C47.9291 45.4851 47.9615 45.4909 47.9918 45.5029C48.0221 45.515 48.0496 45.5331 48.0726 45.5561C48.0957 45.5791 48.1138 45.6066 48.1258 45.6369C48.1378 45.6672 48.1436 45.6996 48.1427 45.7322C48.1428 45.7772 48.1299 45.8212 48.1054 45.859C47.6057 46.724 46.6138 47.1491 45.6444 47.1491C43.9813 47.1491 42.7881 45.6576 42.7881 44.0691C42.7881 42.4807 43.9738 40.9891 45.6444 40.9891C47.2999 40.9891 48.5081 42.4657 48.5155 44.0542V44.0542ZM47.9786 43.823C47.8742 42.6 46.9345 41.4813 45.6369 41.4813C44.3393 41.4813 43.422 42.6 43.2952 43.823H47.9786Z" fill="#3B3B3B"/>
<path d="M54.5933 41.3397C54.5981 41.4059 54.5764 41.4713 54.5331 41.5216C54.4898 41.5719 54.4283 41.603 54.3622 41.6082C52.9079 41.8245 52.2517 43.0102 52.2517 44.3899V46.7539C52.2515 46.8169 52.2289 46.8778 52.1879 46.9257C52.1469 46.9735 52.0902 47.0052 52.0279 47.0149C51.9931 47.0196 51.9577 47.0166 51.9242 47.0063C51.8906 46.996 51.8597 46.9786 51.8335 46.9552C51.8073 46.9318 51.7865 46.9031 51.7724 46.8709C51.7583 46.8388 51.7514 46.8039 51.752 46.7688V41.377C51.7521 41.314 51.7747 41.2531 51.8157 41.2052C51.8567 41.1574 51.9135 41.1257 51.9757 41.116C52.0105 41.1114 52.0459 41.1143 52.0795 41.1246C52.113 41.1349 52.144 41.1524 52.1701 41.1757C52.1963 41.1991 52.2172 41.2278 52.2313 41.26C52.2453 41.2922 52.2523 41.327 52.2517 41.3621V42.4583C52.6618 41.7648 53.4747 41.1085 54.3249 41.1085C54.4516 41.1085 54.5933 41.198 54.5933 41.3397Z" fill="#3B3B3B"/>
<path d="M62.7226 44.0542C62.7214 44.1244 62.6925 44.1912 62.6422 44.2401C62.5919 44.289 62.5242 44.316 62.4541 44.3152H57.5097C57.6365 45.5383 58.5538 46.6569 59.8514 46.6569C60.7388 46.6569 61.3951 46.3213 61.8873 45.6129C61.9102 45.5756 61.9419 45.5446 61.9796 45.5225C62.0173 45.5004 62.0599 45.4879 62.1036 45.4861C62.1361 45.4851 62.1686 45.4909 62.1988 45.5029C62.2291 45.515 62.2566 45.5331 62.2797 45.5561C62.3027 45.5791 62.3208 45.6066 62.3328 45.6369C62.3449 45.6672 62.3506 45.6996 62.3497 45.7322C62.3499 45.7772 62.3369 45.8212 62.3124 45.859C61.8127 46.724 60.8209 47.1491 59.8514 47.1491C58.1883 47.1491 56.9951 45.6576 56.9951 44.0691C56.9951 42.4807 58.1809 40.9891 59.8514 40.9891C61.5219 40.9891 62.7151 42.4657 62.7226 44.0542V44.0542ZM62.1931 43.823C62.0887 42.6 61.149 41.4813 59.8514 41.4813C58.5538 41.4813 57.6365 42.6 57.5097 43.823H62.1931Z" fill="#3B3B3B"/>
<path d="M70.7173 41.3994V46.8136C70.7154 46.8783 70.6889 46.9398 70.6431 46.9855C70.5974 47.0313 70.5359 47.0578 70.4712 47.0597C70.4386 47.0606 70.4062 47.0549 70.3759 47.0428C70.3457 47.0308 70.3182 47.0127 70.2951 46.9897C70.2721 46.9666 70.254 46.9391 70.2419 46.9088C70.2299 46.8786 70.2242 46.8461 70.2251 46.8136V45.7844C69.8149 46.5973 69.0915 47.1865 68.1668 47.1865C66.6976 47.1865 65.8848 45.9112 65.8848 44.5614V41.3919C65.8853 41.3268 65.9115 41.2645 65.9575 41.2185C66.0035 41.1725 66.0658 41.1464 66.1309 41.1458C66.1955 41.1477 66.2571 41.1742 66.3028 41.22C66.3486 41.2657 66.3751 41.3272 66.377 41.3919V44.5614C66.377 45.6278 66.981 46.6868 68.1668 46.6868C69.8298 46.6868 70.2251 45.1282 70.2251 43.4054V41.3844C70.2256 41.3445 70.2357 41.3054 70.2545 41.2702C70.2734 41.235 70.3003 41.2048 70.3332 41.1822C70.366 41.1595 70.4038 41.1451 70.4434 41.1401C70.483 41.135 70.5232 41.1396 70.5607 41.1533C70.6076 41.175 70.6472 41.2098 70.675 41.2534C70.7027 41.297 70.7174 41.3477 70.7173 41.3994V41.3994Z" fill="#3B3B3B"/>
<path d="M83.2382 43.6067V46.7762C83.2364 46.8409 83.2098 46.9024 83.1641 46.9482C83.1183 46.9939 83.0568 47.0204 82.9921 47.0223C82.9596 47.0232 82.9272 47.0175 82.8969 47.0055C82.8666 46.9934 82.8391 46.9753 82.8161 46.9523C82.793 46.9293 82.7749 46.9018 82.7629 46.8715C82.7508 46.8412 82.7451 46.8088 82.746 46.7762V43.6067C82.746 42.5403 82.142 41.4962 80.9562 41.4962C79.4647 41.4962 78.8979 43.0922 78.8979 44.3301V46.7762C78.896 46.8409 78.8695 46.9024 78.8238 46.9482C78.778 46.9939 78.7165 47.0204 78.6518 47.0223C78.6192 47.0232 78.5868 47.0175 78.5565 47.0055C78.5263 46.9934 78.4988 46.9753 78.4757 46.9523C78.4527 46.9293 78.4346 46.9018 78.4226 46.8715C78.4105 46.8412 78.4048 46.8088 78.4057 46.7762V43.6067C78.4057 42.5403 77.8016 41.4962 76.6159 41.4962C75.1094 41.4962 74.4905 42.682 74.5427 44.263C74.5427 44.3003 74.5576 44.3674 74.5427 44.3898V46.7688C74.5425 46.8318 74.5199 46.8927 74.4789 46.9405C74.4379 46.9884 74.3812 47.02 74.3189 47.0298C74.2841 47.0344 74.2488 47.0315 74.2152 47.0211C74.1816 47.0108 74.1507 46.9934 74.1245 46.97C74.0983 46.9467 74.0775 46.9179 74.0634 46.8858C74.0493 46.8536 74.0424 46.8188 74.043 46.7837V41.3769C74.0431 41.3139 74.0657 41.253 74.1067 41.2051C74.1478 41.1573 74.2045 41.1257 74.2667 41.1159C74.3015 41.1113 74.3369 41.1142 74.3705 41.1245C74.404 41.1348 74.435 41.1523 74.4612 41.1756C74.4874 41.199 74.5082 41.2278 74.5223 41.2599C74.5363 41.2921 74.5433 41.3269 74.5427 41.362V42.2644C74.9678 41.5037 75.7284 41.004 76.6159 41.004C77.6227 41.004 78.4057 41.6454 78.7264 42.5776C79.1366 41.6528 79.9345 41.004 80.9562 41.004C82.4104 41.004 83.2382 42.2644 83.2382 43.6067Z" fill="#3B3B3B"/>
<path opacity="0.6" d="M8.8861 39.9078L2.69629 42.7194L8.8861 46.381L15.0834 42.7194L8.8861 39.9078Z" fill="black"/>
<path opacity="0.45" d="M2.69629 42.7193L8.8861 46.381V32.4427L2.69629 42.7193Z" fill="black"/>
<path opacity="0.8" d="M8.88574 32.4427V46.381L15.083 42.7193L8.88574 32.4427Z" fill="black"/>
<path opacity="0.45" d="M2.69629 43.8977L8.8861 52.6231V47.5519L2.69629 43.8977Z" fill="black"/>
<path opacity="0.8" d="M8.88574 47.5519V52.6231L15.083 43.8977L8.88574 47.5519Z" fill="black"/>
</svg>
