<svg width="600" height="600" viewBox="0 0 600 600" fill="none" xmlns="http://www.w3.org/2000/svg">
<path d="M111.657 292.998C111.746 301.014 110.069 308.673 106.772 315.99C102.066 326.409 90.7814 334.929 80.4778 325.86C72.0738 318.469 70.515 303.463 57.9243 301.266C41.2655 299.247 40.8646 318.557 29.9815 320.739C17.8511 323.203 13.8275 302.809 14.0056 293.548C14.1838 284.286 16.6485 271.269 27.1901 271.269C39.3205 271.269 40.1371 289.629 55.5339 288.635C70.7824 287.596 71.0492 268.493 81.012 260.315C89.6088 253.25 99.7196 258.43 104.783 266.935C109.475 274.801 111.538 284.033 111.642 292.998H111.657Z" fill="black"/>
<path d="M157.409 324.335V262.352H163.288V289.158H199.546V262.352H205.337V324.335H199.546V294.145H163.288V324.335H157.409Z" fill="black"/>
<path d="M220.689 343.133L228.707 323.184L211.336 281.506H217.394L228.796 309.737C229.45 311.459 230.37 313.744 231.558 316.594C231.736 316.179 231.914 315.718 232.093 315.214C232.271 314.709 232.449 314.249 232.627 313.833C232.984 313.061 233.295 312.334 233.562 311.651C233.83 310.969 234.082 310.301 234.319 309.648L245.01 281.506H250.8L226.48 343.133H220.689Z" fill="black"/>
<path d="M256.675 343.13V281.503H262.198V289.34C263.624 286.668 265.687 284.486 268.389 282.794C271.092 281.102 274.106 280.256 277.432 280.256C281.411 280.256 284.87 281.221 287.81 283.15C290.749 285.08 293.006 287.751 294.58 291.165C296.154 294.579 296.941 298.453 296.941 302.787C296.941 307.121 296.124 311.099 294.491 314.542C292.858 317.986 290.556 320.688 287.587 322.647C284.618 324.606 281.232 325.586 277.432 325.586C274.224 325.586 271.27 324.814 268.567 323.27C265.865 321.726 263.742 319.471 262.198 316.502V343.13H256.675ZM276.629 321.133C279.539 321.133 282.108 320.361 284.335 318.817C286.563 317.274 288.27 315.122 289.458 312.361C290.646 309.6 291.24 306.409 291.24 302.787C291.24 299.166 290.631 296.167 289.413 293.436C288.196 290.705 286.488 288.583 284.291 287.069C282.093 285.555 279.539 284.798 276.629 284.798C273.719 284.798 271.24 285.54 269.013 287.024C266.786 288.508 265.049 290.616 263.802 293.347C262.554 296.078 261.93 299.225 261.93 302.787C261.93 306.35 262.554 309.6 263.802 312.361C265.049 315.122 266.771 317.274 268.968 318.817C271.166 320.361 273.719 321.133 276.629 321.133Z" fill="black"/>
<path d="M323.312 325.586C319.274 325.586 315.725 324.695 312.667 322.914C309.608 321.133 307.233 318.52 305.54 315.077C303.847 311.633 303.001 307.507 303.001 302.698C303.001 298.423 303.877 294.579 305.629 291.165C307.381 287.751 309.772 285.08 312.8 283.15C315.829 281.221 319.214 280.256 322.956 280.256C326.994 280.256 330.439 281.176 333.29 283.017C336.14 284.857 338.308 287.455 339.793 290.809C341.277 294.164 342.02 298.067 342.02 302.52V303.678H308.524C308.524 307.359 309.148 310.505 310.395 313.118C311.642 315.73 313.394 317.719 315.651 319.084C317.908 320.45 320.491 321.133 323.401 321.133C326.846 321.133 329.711 320.317 331.998 318.684C334.284 317.051 335.695 314.602 336.229 311.336H341.752C341.337 314.068 340.372 316.502 338.857 318.639C337.343 320.776 335.265 322.468 332.621 323.715C329.979 324.962 326.875 325.586 323.312 325.586ZM336.14 299.492C336.081 295.039 334.893 291.477 332.577 288.805C330.261 286.134 327.054 284.798 322.956 284.798C318.858 284.798 315.696 286.178 313.112 288.939C310.529 291.7 309.059 295.217 308.703 299.492H336.14Z" fill="black"/>
<path d="M350.559 324.339V281.503H356.082V290.052C357.27 287.202 359.126 284.857 361.65 283.017C364.174 281.176 367.129 280.256 370.514 280.256C371.345 280.256 372.147 280.315 372.919 280.434V285.777C371.909 285.659 371.018 285.599 370.246 285.599C367.396 285.599 364.901 286.237 362.763 287.514C360.625 288.79 358.977 290.616 357.819 292.991C356.661 295.366 356.082 298.127 356.082 301.273V324.339H350.559Z" fill="black"/>
<path d="M425.438 260.428C428.048 260.428 431.008 260.205 434.319 259.76L433.46 276.566H432.123C431.932 271.855 431.008 268.449 429.354 266.348C427.698 264.184 424.738 263.102 420.473 263.102H400.23L394.5 290.125H410.924C414.171 290.125 416.526 289.457 417.99 288.12C419.518 286.719 420.696 284.396 421.524 281.149H422.86L418.468 301.679H417.131C417.386 300.024 417.513 298.878 417.513 298.242C417.513 296.395 416.972 295.027 415.889 294.136C414.807 293.244 412.961 292.799 410.351 292.799H393.927L389.153 315.143C388.962 316.098 388.867 316.957 388.867 317.721C388.867 319.058 389.217 320.045 389.917 320.681C390.617 321.254 391.731 321.541 393.259 321.541H409.206C413.471 321.541 416.876 320.49 419.423 318.389C421.969 316.289 424.356 312.851 426.584 308.077H427.921L421.619 324.883C418.627 324.437 415.762 324.214 413.025 324.214H372.538L372.825 322.877C375.944 322.75 378.267 322.177 379.795 321.159C381.386 320.14 382.5 318.135 383.137 315.143L392.877 269.404C393.068 268.322 393.164 267.431 393.164 266.73C393.164 264.884 392.559 263.643 391.349 263.006C390.203 262.306 388.357 261.892 385.811 261.765L386.097 260.428H425.438Z" fill="black"/>
<path d="M506.9 260.432L506.614 261.768C503.558 261.832 501.109 262.501 499.261 263.774C497.48 265.047 495.604 267.243 493.627 270.362L460.017 325.65H458.68L448.368 270.458C447.795 267.339 446.903 265.142 445.694 263.869C444.485 262.596 442.543 261.896 439.869 261.768L440.156 260.432H462.213L461.927 261.768C456.707 261.959 454.097 263.933 454.097 267.689C454.097 268.389 454.192 269.185 454.383 270.076L462.786 316.292L490.764 270.267C492.037 268.103 492.672 266.416 492.672 265.206C492.672 264.06 492.133 263.233 491.051 262.723C490.032 262.15 488.409 261.832 486.181 261.768L486.467 260.432H506.9Z" fill="black"/>
<path d="M585.713 261.768C582.658 261.832 580.332 262.373 578.742 263.392C577.153 264.41 576.102 266.193 575.591 268.739L565.47 316.197C565.279 316.961 565.183 317.661 565.183 318.297C565.183 319.825 565.756 320.94 566.902 321.64C568.11 322.276 570.053 322.69 572.727 322.881L572.44 324.218H549.141L549.428 322.881C552.612 322.626 554.932 322.053 556.398 321.162C557.926 320.207 558.943 318.552 559.454 316.197L569.385 269.312L531.094 325.65H529.757L516.293 269.312L506.362 316.197C506.171 317.025 506.076 317.756 506.076 318.393C506.076 319.921 506.649 321.003 507.795 321.64C508.941 322.276 510.788 322.69 513.333 322.881L513.047 324.218H493.376L493.662 322.881C496.847 322.626 499.167 322.053 500.633 321.162C502.099 320.207 503.116 318.552 503.689 316.197L513.715 268.739C513.906 267.848 514.001 267.084 514.001 266.447C514.001 264.792 513.395 263.646 512.187 263.01C511.041 262.31 509.194 261.896 506.649 261.768L506.935 260.432H520.208L533.672 316.961L572.249 260.432H586L585.713 261.768Z" fill="black"/>
</svg>
