<svg width="86" height="85" viewBox="0 0 86 85" fill="none" xmlns="http://www.w3.org/2000/svg">
<path fill-rule="evenodd" clip-rule="evenodd" d="M15.2165 39.5661H5.26462C5.21716 39.566 5.17073 39.5522 5.13103 39.5262C5.09132 39.5003 5.06006 39.4633 5.04108 39.4199C5.02209 39.3765 5.0162 39.3285 5.02413 39.2818C5.03206 39.2351 5.05347 39.1917 5.08573 39.157L7.18273 36.9104C7.22814 36.8616 7.28312 36.8227 7.34428 36.7961C7.40543 36.7694 7.47143 36.7556 7.53815 36.7555H17.49C17.5379 36.7546 17.585 36.7677 17.6254 36.7934C17.6658 36.8191 17.6978 36.8561 17.7171 36.8999C17.7366 36.9436 17.7425 36.9921 17.7343 37.0392C17.7261 37.0863 17.7042 37.1299 17.6713 37.1646L15.5719 39.4112C15.5265 39.46 15.4715 39.4989 15.4104 39.5255C15.3492 39.5522 15.2832 39.566 15.2165 39.5661ZM15.5717 41.18C15.5262 41.1314 15.4711 41.0926 15.41 41.066C15.3489 41.0394 15.283 41.0254 15.2163 41.0251H5.26443C5.21696 41.0251 5.17054 41.039 5.13083 41.0649C5.09113 41.0909 5.05987 41.1278 5.04088 41.1712C5.0219 41.2147 5.01601 41.2627 5.02394 41.3094C5.03187 41.3561 5.05327 41.3995 5.08553 41.4342L7.18253 43.6819C7.22811 43.7305 7.28314 43.7693 7.34425 43.7959C7.40536 43.8225 7.47128 43.8364 7.53796 43.8368H17.4898C17.5372 43.8365 17.5834 43.8225 17.623 43.7965C17.6626 43.7704 17.6936 43.7335 17.7124 43.6901C17.7313 43.6467 17.7371 43.5988 17.729 43.5522C17.7211 43.5056 17.6998 43.4624 17.6675 43.4277L15.5717 41.18ZM17.6711 45.7049L15.5717 47.9515C15.5263 48.0003 15.4713 48.0392 15.4102 48.0658C15.349 48.0925 15.283 48.1063 15.2163 48.1064H5.26443C5.21696 48.1063 5.17054 48.0925 5.13083 48.0665C5.09113 48.0406 5.05987 48.0036 5.04088 47.9602C5.0219 47.9168 5.01601 47.8688 5.02394 47.8221C5.03187 47.7754 5.05327 47.732 5.08553 47.6973L7.18253 45.4507C7.22795 45.402 7.28293 45.363 7.34409 45.3364C7.40523 45.3097 7.47123 45.2959 7.53796 45.2958H17.4898C17.5377 45.2949 17.5849 45.308 17.6253 45.3337C17.6657 45.3594 17.6976 45.3964 17.717 45.4402C17.7364 45.4839 17.7423 45.5324 17.7341 45.5795C17.726 45.6266 17.704 45.6703 17.6711 45.7049Z" fill="#29233B"/>
<path d="M29.8577 41.6111H24.5529V39.8664H31.2365V38.1217H24.5352C24.3062 38.1205 24.0793 38.1643 23.8673 38.2506C23.6553 38.337 23.4623 38.4642 23.2996 38.625C23.1368 38.7858 23.0073 38.9771 22.9186 39.1878C22.8298 39.3986 22.7834 39.6248 22.7822 39.8534V41.6217C22.7832 41.8505 22.8292 42.0769 22.9179 42.288C23.0065 42.499 23.1359 42.6905 23.2987 42.8516C23.4616 43.0127 23.6546 43.1401 23.8667 43.2266C24.0788 43.3131 24.306 43.357 24.5352 43.3557H29.8471V45.1004H22.9085V46.845H29.8577C30.0867 46.8463 30.3136 46.8025 30.5256 46.7161C30.7376 46.6298 30.9306 46.5026 31.0933 46.3418C31.2561 46.1809 31.3856 45.9897 31.4743 45.7789C31.5631 45.5682 31.6095 45.342 31.6107 45.1133V43.3451C31.6097 43.1163 31.5637 42.8898 31.4751 42.6788C31.3864 42.4678 31.257 42.2762 31.0942 42.1152C30.9313 41.9541 30.7383 41.8267 30.5262 41.7402C30.3141 41.6537 30.0869 41.6098 29.8577 41.6111Z" fill="black"/>
<path fill-rule="evenodd" clip-rule="evenodd" d="M34.8393 38.1219H40.1599C40.3888 38.1206 40.6155 38.1645 40.8273 38.2508C41.0391 38.3372 41.232 38.4644 41.3945 38.6252C41.5572 38.786 41.6865 38.9772 41.7752 39.188C41.8639 39.3987 41.9103 39.6249 41.9115 39.8535V45.1134C41.9103 45.342 41.8639 45.5682 41.7752 45.7789C41.6865 45.9897 41.5572 46.1809 41.3945 46.3417C41.232 46.5025 41.0391 46.6298 40.8273 46.7161C40.6155 46.8025 40.3888 46.8463 40.1599 46.845H34.8393C34.6101 46.8469 34.3828 46.8035 34.1704 46.7175C33.9581 46.6314 33.7648 46.5043 33.6016 46.3434C33.4384 46.1826 33.3086 45.9911 33.2197 45.78C33.1307 45.569 33.0842 45.3424 33.083 45.1134V39.8535C33.0842 39.6245 33.1307 39.3979 33.2197 39.1869C33.3086 38.9758 33.4384 38.7843 33.6016 38.6235C33.7648 38.4626 33.9581 38.3355 34.1704 38.2494C34.3828 38.1634 34.6101 38.12 34.8393 38.1219ZM34.8522 45.1004H40.1469L40.1446 39.8665H34.8522V45.1004Z" fill="black"/>
<path fill-rule="evenodd" clip-rule="evenodd" d="M53.5453 38.1218H58.7463C58.9765 38.119 59.205 38.1617 59.4187 38.2473C59.6324 38.333 59.827 38.46 59.9912 38.6209C60.1555 38.7819 60.2861 38.9736 60.3758 39.1852C60.4654 39.3967 60.5122 39.6239 60.5134 39.8535V46.8451H58.7404V43.9794H53.5631V46.8451H51.79V39.8535C51.7912 39.6249 51.8377 39.3987 51.9266 39.1879C52.0155 38.9772 52.1451 38.7859 52.3081 38.6251C52.471 38.4643 52.6643 38.3371 52.8766 38.2507C53.0889 38.1644 53.316 38.1206 53.5453 38.1218ZM53.5563 42.2347H58.7336V39.8665H53.5563V42.2347Z" fill="black"/>
<path fill-rule="evenodd" clip-rule="evenodd" d="M74.3583 38.122H79.5663C79.7959 38.1207 80.0234 38.1645 80.236 38.2509C80.4485 38.3373 80.6419 38.4645 80.8052 38.6253C80.9684 38.7861 81.0982 38.9773 81.1872 39.1881C81.2762 39.3989 81.3228 39.625 81.3239 39.8537V46.8453H79.5485V43.9796H74.376V46.8453H72.6006V39.8537C72.6018 39.625 72.6483 39.3989 72.7373 39.1881C72.8263 38.9773 72.9561 38.7861 73.1194 38.6253C73.2826 38.4645 73.476 38.3373 73.6886 38.2509C73.9012 38.1645 74.1287 38.1207 74.3583 38.122ZM74.3641 42.2348H79.5484V39.8665H74.3641V42.2348Z" fill="black"/>
<path d="M69.251 45.1004H68.5433L66.0133 38.8526C65.9266 38.637 65.7774 38.4523 65.5849 38.3221C65.3924 38.1919 65.1654 38.1221 64.9329 38.1217H63.363C63.2104 38.1209 63.0592 38.1502 62.918 38.2078C62.7767 38.2655 62.6482 38.3504 62.5397 38.4576C62.4313 38.5649 62.3451 38.6925 62.286 38.8331C62.2269 38.9736 62.1961 39.1245 62.1953 39.277V46.8451H63.9645V39.8664H64.6722L67.2011 46.1142C67.2892 46.3293 67.4395 46.5133 67.6329 46.6426C67.8261 46.772 68.0536 46.8408 68.2862 46.8404H69.8561C70.0087 46.8411 70.1599 46.8119 70.3011 46.7542C70.4424 46.6966 70.5709 46.6117 70.6794 46.5044C70.7878 46.3972 70.874 46.2696 70.9331 46.129C70.9922 45.9884 71.023 45.8376 71.0238 45.6851V38.1217H69.251V45.1004Z" fill="black"/>
<path d="M45.2507 38.1217H43.4873V45.1133C43.4885 45.3425 43.5349 45.5691 43.6237 45.7803C43.7124 45.9914 43.8419 46.1829 44.0046 46.3438C44.1673 46.5047 44.3602 46.6318 44.5719 46.7178C44.7837 46.8038 45.0104 46.847 45.2389 46.845H50.5291V45.1003H45.2507V38.1217Z" fill="black"/>
</svg>
